<?xml version="1.0" encoding="UTF-8"?> <svg xmlns="http://www.w3.org/2000/svg" xmlns:xlink="http://www.w3.org/1999/xlink" height="74.4" viewBox="0 0 413.4 74.4" width="413.4"><linearGradient id="a" gradientTransform="matrix(1 0 0 -1 0 30.8)" gradientUnits="userSpaceOnUse" x2="413.43" y1="-6.4" y2="-6.4"><stop offset="0" stop-color="#dd215e"></stop><stop offset=".1" stop-color="#df2561"></stop><stop offset=".19" stop-color="#e7306b"></stop><stop offset=".28" stop-color="#f3437a"></stop><stop offset=".34" stop-color="#ff5589"></stop><stop offset=".41" stop-color="#fa4e89"></stop><stop offset=".52" stop-color="#eb3b89"></stop><stop offset=".65" stop-color="#d31b8a"></stop><stop offset=".75" stop-color="#bf008a"></stop><stop offset="1" stop-color="#9e005d"></stop></linearGradient><path d="m105.5 0 4 .9a14.3 14.3 0 0 0 -1.4 2 24 24 0 0 0 -1.1 2.3 18.2 18.2 0 0 0 -.7 2.5 21.1 21.1 0 0 0 -.2 2.6c0 .6.1 1.2.1 1.8a12.9 12.9 0 0 0 .4 1.9 13.3 13.3 0 0 0 .5 1.9 18 18 0 0 0 .8 2.1l-5.2.9a15.5 15.5 0 0 1 -.7-2.3 14.2 14.2 0 0 1 -.5-2.2l-.3-2v-2a15.7 15.7 0 0 1 .5-3 14.3 14.3 0 0 1 .9-2.7c.4-.8.8-1.7 1.3-2.5a17.7 17.7 0 0 1 1.6-2.2m-37.9 13.3-4.5 2.4a35.2 35.2 0 0 0 5.6 3.5 59.8 59.8 0 0 0 7.4 2.9 53.4 53.4 0 0 0 8.8 2 69.1 69.1 0 0 0 10.1 1l.7-3.9a87.2 87.2 0 0 1 -8.8-.8 66 66 0 0 1 -7.7-1.7 46 46 0 0 1 -6.5-2.5 32 32 0 0 1 -5.1-2.9m46.3 16.8a64.4 64.4 0 0 1 8.8 5.9 74.9 74.9 0 0 1 8.4 7.5 80.6 80.6 0 0 1 7.9 9.6 93.2 93.2 0 0 1 7.4 12.1l-7.6 1.7a82.7 82.7 0 0 0 -6.2-11.3 66.4 66.4 0 0 0 -6.8-9 74 74 0 0 0 -7.5-7.3 76.2 76.2 0 0 0 -8-5.6zm28.3-14.4c-2.5 0-5 .1-7.4.3s-4.8.6-7.2 1.1a45 45 0 0 0 -7 1.8 58.9 58.9 0 0 0 -7 2.6l3.5 3.2a49.9 49.9 0 0 1 6.4-2.5 36.9 36.9 0 0 1 6.5-1.8c2.3-.4 4.5-.8 6.7-1s4.6-.3 7-.3h5.3l-1.1-3.4zm-126.4 43.2h5.1v-13.8c0-3.3 0-10.7-9.7-10.7a12.7 12.7 0 0 0 -9.7 3.8l3 3.1a8.9 8.9 0 0 1 6-2.4c3.1 0 5.2 1.5 5.2 4.4v.7h-1.4c-5.7 0-14.3.5-14.3 8.3 0 4.7 4.1 7.2 8.3 7.2a8.2 8.2 0 0 0 7.3-3.9h.1zm-.4-9.4c0 3.4-1.9 5.5-5.7 5.5-1.9 0-4-.9-4-3.1s5.4-3.7 8.5-3.7h1.2zm27.3-11.5c-1.9-2.6-5.1-3.6-8.1-3.6-4.6 0-9.2 2.4-9.2 7.7 0 9.1 12.3 5.2 12.3 10.2 0 1.9-2.2 2.7-3.8 2.7s-3.9-1.2-5.4-2.9l-3.8 3.7c2.4 2.8 5.4 3.7 8.9 3.7s9.8-2 9.8-7.6c0-9.4-12.3-5.9-12.3-10.2 0-1.8 1.8-2.5 3.3-2.5a5 5 0 0 1 4.5 2.4zm7.1 2.1v10.9c0 5.7 1.4 8.5 7.4 8.5a10.4 10.4 0 0 0 4.6-.8v-5a5.7 5.7 0 0 1 -3.1.7c-2.5 0-3.2-1.5-3.2-3.9v-10.4h6.3v-5.1h-6.3v-7h-5.7v7h-4.7v5.1zm30.2 18.8h5v-13.8c0-3.3 0-10.7-9.7-10.7a12.4 12.4 0 0 0 -9.6 3.8l2.9 3.1a9.2 9.2 0 0 1 6.1-2.4c3 0 5.2 1.5 5.2 4.4v.7h-1.4c-5.6 0-14.3.5-14.3 8.3 0 4.7 4.1 7.2 8.3 7.2a8.2 8.2 0 0 0 7.3-3.9h.1zm-.3-9.4c0 3.4-1.9 5.5-5.8 5.5-1.9 0-4-.9-4-3.1s5.5-3.7 8.5-3.7h1.2zm16-28.3h-5.7v37.8h5.7v-13.2c0-3.1 1.5-6 5.2-6s4.2 4.3 4.2 7v12.1h5.6v-15.1c0-4.9-2.1-9.4-8.3-9.4a7 7 0 0 0 -6.6 3.9h-.1zm62 53.2h3.5v-19.2h.1a11.4 11.4 0 0 0 9.5 4.7 12.5 12.5 0 0 0 13-12.9 12.5 12.5 0 0 0 -13-12.9 12.1 12.1 0 0 0 -9.6 4.8h-.1v-4.1h-3.4zm22.4-27.3c0 5.5-3.6 9.7-9.3 9.7a9.8 9.8 0 0 1 0-19.5c5.7 0 9.2 4.2 9.2 9.7zm8.7 12.2h3.4v-13.8c0-3.3 2.4-7.9 7.6-7.9a6.4 6.4 0 0 1 2 .3l.7-3.4a7.8 7.8 0 0 0 -2.6-.4 8 8 0 0 0 -7.8 5.2h-.1v-4.5h-3.5c.1 3.5.3 5.4.3 7.6zm39.6-12.2a13 13 0 0 0 -26 0c0 7.3 5.4 12.8 13 12.8a12.5 12.5 0 0 0 13-12.9zm-3.7 0c0 5.5-3.6 9.7-9.3 9.7s-9.2-4.2-9.2-9.7 3.6-9.8 9.2-9.8 9.2 4.2 9.2 9.7zm20.1-12.3h-5.8v-6.3c0-3.6.6-6.3 4.5-6.3a7.5 7.5 0 0 1 2.6.4l.6-3.2a13.6 13.6 0 0 0 -2.9-.3c-5 0-8.3 2.5-8.3 9v6.7h-5.1v3.1h5.1v21.4h3.5v-21.4h5.8zm25.6 13.2v-1.6c0-6.7-4.3-12.2-11.7-12.3s-12.4 5.5-12.4 12.9 5.4 12.9 12.7 12.9a12.4 12.4 0 0 0 10.5-5.2l-2.6-2.2a9.1 9.1 0 0 1 -16.9-4.5zm-20.3-2.8c0-4.1 4.1-7.9 8.6-7.9s8 3.2 8 7.9zm41.1-6.6c-1.5-3.2-4.7-4.4-8.1-4.4s-9.1 2.3-9.1 7.3 4.6 6.1 6.3 6.5l3.3.8c2.6.6 4.7 1.4 4.7 3.9s-2.9 4.1-5.8 4.1a7.4 7.4 0 0 1 -6.4-3.7l-3 2.1a10.7 10.7 0 0 0 9.4 4.7c4.8 0 9.6-2.2 9.6-7.6 0-3.4-2.6-5.9-6-6.7l-3.5-.8c-3.2-.7-4.8-1.6-4.8-3.9s2.6-3.6 5.1-3.6a5.4 5.4 0 0 1 5.2 3.3zm21 0c-1.5-3.2-4.7-4.4-8.2-4.4s-9 2.3-9 7.3 4.6 6.1 6.3 6.5l3.3.8c2.6.6 4.7 1.4 4.7 3.9s-2.9 4.1-5.8 4.1a7.4 7.4 0 0 1 -6.4-3.7l-3 2.1a10.7 10.7 0 0 0 9.4 4.7c4.8 0 9.6-2.2 9.6-7.6 0-3.4-2.6-5.9-6-6.7l-3.5-.8c-3.2-.7-4.8-1.6-4.8-3.9s2.6-3.6 5-3.6a5.5 5.5 0 0 1 5.3 3.3zm9.7-13.2a2.5 2.5 0 1 0 -5 0 2.5 2.5 0 0 0 2.5 2.5 2.6 2.6 0 0 0 2.5-2.6zm-.8 9.4h-3.4v24.5h3.4zm31.5 12.3a13 13 0 0 0 -26 0c0 7.3 5.4 12.8 13 12.8a12.5 12.5 0 0 0 13-12.9zm-3.7 0c0 5.5-3.6 9.7-9.3 9.7s-9.2-4.2-9.2-9.7 3.6-9.8 9.2-9.8 9.2 4.2 9.2 9.7zm7.9-12.3c.1 1.8.3 4.1.3 5.4v19.1h3.5v-12.6c0-8.9 6.6-9.4 7.4-9.4 5.1 0 6.6 3 6.6 8.4v13.6h3.4v-15.6c0-6-2.9-9.6-9.2-9.6a10.1 10.1 0 0 0 -8.2 4.6h-.1a25.5 25.5 0 0 0 -.2-3.9zm41.3 9.5c-5.9 0-15.2.5-15.2 8.4 0 4.8 4 7.2 8.4 7.2s6.6-1.3 8.6-4.6h.1a26.9 26.9 0 0 0 .3 4h3.3a50.9 50.9 0 0 1 -.4-5.5v-11c0-5.9-4.1-8.7-8.9-8.7s-8.1 1.3-10.4 3.6l2.1 2.5a11 11 0 0 1 7.5-2.9c4.3 0 6.3 2.1 6.3 6.3v.7zm1.7 2.8v1.8c0 4.3-2.4 7.9-7.4 7.9-2.8 0-5.8-1.3-5.8-4.5 0-5 7.9-5.2 11.4-5.2zm13.6-27.4h-3.4v39.6h3.4z" fill="url(#a)"></path></svg> 